PathFileType	4	(X/Y/Z)	D:\Research_projects\MuscleProsody\BulkSports2Dtrack\RetrackedSports2D\p1_sample60_cam2\p1_sample60_cam2_Sports2D\p1_sample60_cam2_Sports2D_px_person00.trc
DataRate	CameraRate	NumFrames	NumMarkers	Units	OrigDataRate	OrigDataStartFrame	OrigNumFrames
60	60	13	22	m	60	195	780
Frame#	Time	Hip			RHip			RKnee			RAnkle			RBigToe			RSmallToe			RHeel			LHip			LKnee			LAnkle			LBigToe			LSmallToe			LHeel			Neck			Head			Nose			RShoulder			RElbow			RWrist			LShoulder			LElbow			LWrist		
		X1	Y1	Z1	X2	Y2	Z2	X3	Y3	Z3	X4	Y4	Z4	X5	Y5	Z5	X6	Y6	Z6	X7	Y7	Z7	X8	Y8	Z8	X9	Y9	Z9	X10	Y10	Z10	X11	Y11	Z11	X12	Y12	Z12	X13	Y13	Z13	X14	Y14	Z14	X15	Y15	Z15	X16	Y16	Z16	X17	Y17	Z17	X18	Y18	Z18	X19	Y19	Z19	X20	Y20	Z20	X21	Y21	Z21	X22	Y22	Z22
195	3.25	243.56654583723451	460.86756448285934	0.0	214.07310209750764	455.50885211912794	0.0	215.94304564779645	592.7304944154976	0.0	216.86306270033666	710.3785701890138	0.0	217.91854143543264	753.7716440594992	0.0	204.85688759903837	742.86983314902	0.0	223.76235405485573	714.6986378187039	0.0	272.69556704801255	454.28613201140695	0.0	273.38574481847854	588.1201461132539	0.0	272.9865919756718	708.3152984880519	0.0	265.856547070857	746.0464591445989	0.0	281.95406957116955	741.9073034968416	0.0	268.3159937051791	712.1124755529887	0.0	239.88048855898714	284.1212215125315	0.0	231.9277931617299	194.1187650736276	0.0	227.5341851524554	248.16364165697894	0.0	188.42699036880222	295.4426255388832	0.0	124.02715094363822	242.71129749447937	0.0	145.58991897885642	147.24767293886657	0.0	295.0055943472403	291.504264682386	0.0	364.14976710721896	248.04024069853853	0.0	356.70736027530495	153.905904774312	0.0
196	3.2666666666666666	243.63961352002693	456.52538460011783	0.0	214.10129833962955	451.233494260253	0.0	215.93033589057254	589.3396123264396	0.0	216.3941103504982	707.796226840306	0.0	217.49383514537314	751.9630306577174	0.0	204.3366755392065	740.8474802190608	0.0	223.4441957465799	712.2565168938468	0.0	272.8545926547759	450.0224745451748	0.0	273.65260018724297	584.5919984785278	0.0	273.1313479571476	705.8067410447135	0.0	266.3985731853282	743.9327067328533	0.0	282.44258031853417	739.7324647390939	0.0	268.312878796313	709.7342191805832	0.0	239.89379253381293	279.8195734216619	0.0	231.99098490208797	189.65047599437747	0.0	227.66125074931873	243.9312240057837	0.0	188.62618220367756	291.1717320587706	0.0	124.54452410923795	236.78580284903498	0.0	147.06363418676838	141.33693224110038	0.0	294.8195977437999	287.19997283112923	0.0	364.0287415553811	243.4915922788201	0.0	355.74907158953897	149.39230227083118	0.0
197	3.283333333333333	243.65901785639372	453.62627266871976	0.0	214.1283568937602	448.3443647590191	0.0	215.90077994302808	587.1467099816934	0.0	216.00081044987806	706.1043351945223	0.0	217.19860030775536	750.7217157078751	0.0	203.90664754997547	739.4514007669845	0.0	223.13137096545893	710.6938365995585	0.0	272.93747468750973	447.1701126599156	0.0	273.7860707936533	582.3737259498419	0.0	273.2459927515292	704.1320308425164	0.0	266.93932320479274	742.493063239124	0.0	282.94423535008906	738.2222058197669	0.0	268.31792014453055	708.1593495424212	0.0	239.89250345415974	277.0070697305004	0.0	232.05920027695862	186.7202154155147	0.0	227.769812202267	241.2984170890507	0.0	188.7706540878657	288.4290271881392	0.0	124.73148156209274	233.29612658925498	0.0	148.41657694737725	138.15570362573217	0.0	294.6503446374224	284.40034461720455	0.0	364.0942943516904	241.2921628153423	0.0	354.83847017140573	147.4887397151011	0.0
198	3.3	243.62608790034233	452.2288147279539	0.0	214.13687354522446	446.89053943605876	0.0	215.842399698977	586.2104072112066	0.0	215.66656748549974	705.4422252535629	0.0	217.02298919475035	750.171513140226	0.0	203.5658588243052	738.8103699902825	0.0	222.8011619736155	710.1434154455014	0.0	272.9525042189094	445.7777286212602	0.0	273.79726541367205	581.5283641493496	0.0	273.33716475916174	703.4344574773596	0.0	267.43823526553405	741.8655983087153	0.0	283.42753432620583	737.5294988888747	0.0	268.3481076816493	707.5307176259367	0.0	239.87718537390387	275.74655276344583	0.0	232.12238934306762	185.3922469640337	0.0	227.867629850938	240.30428967889102	0.0	188.8737558554604	287.2453773044304	0.0	124.60852432922938	232.17500570811353	0.0	149.58680584557953	137.56046636396485	0.0	294.48251055729946	283.1524902658865	0.0	364.3205074202071	241.3943417901343	0.0	353.9734181178119	148.10585971026188	0.0
199	3.3166666666666664	243.5437195426225	452.339120447415	0.0	214.1077401446376	446.88041541734464	0.0	215.7411497888156	586.5314195269298	0.0	215.37959866922318	705.8661203157404	0.0	216.95348010006722	750.3663659727662	0.0	203.31439341192888	738.9853640336573	0.0	222.4439370811357	710.656330890323	0.0	272.90635498598346	445.85204056811347	0.0	273.6975003610787	582.050931242967	0.0	273.4036702864592	703.7865580238886	0.0	267.84866846219563	742.121084524566	0.0	283.8504406290107	737.7397314708065	0.0	268.4061639645923	707.9140854785392	0.0	239.84874534313528	276.0703648162172	0.0	232.16419448445893	185.69523813683307	0.0	227.9540039588311	240.95813919261502	0.0	188.94800720045	287.61584393718755	0.0	124.21399732705264	233.33734792962565	0.0	150.5118966894406	139.40326410909614	0.0	294.3065795825759	283.4740293393577	0.0	364.6694307210969	243.7298506355125	0.0	353.15520004721145	151.1527652544255	0.0
200	3.3333333333333335	243.41436494980027	453.91648157842576	0.0	214.0272466917078	448.2813308614362	0.0	215.5848319278342	588.0593802624774	0.0	215.1353094715923	707.346249657959	0.0	216.9784374326307	751.2857945320886	0.0	203.15530949371407	739.9634543261168	0.0	222.06312760796504	712.203315025406	0.0	272.80384447668166	447.35712144521636	0.0	273.49882824356735	583.8731396826709	0.0	273.437488914703	705.1825998826018	0.0	268.12794767724756	743.2537555832351	0.0	284.1708667400379	738.8536195466161	0.0	268.47951689655076	709.2956957759855	0.0	239.8071826317994	277.9678034868399	0.0	232.17155709405904	187.6176108889217	0.0	228.0211084307393	243.23611941460103	0.0	188.99995175632873	289.49897125415805	0.0	123.59489166767302	236.69061541423264	0.0	151.13811843323242	143.5477345364383	0.0	294.11864335103434	285.3482831830281	0.0	365.09645066772885	248.21817705156033	0.0	352.3853063496039	156.54486018757447	0.0
201	3.35	243.24091561699103	456.8790335855884	0.0	213.8908654617589	451.02857339916284	0.0	215.36691910663203	590.6964056696446	0.0	214.93870019199792	709.767334915211	0.0	217.09185191460975	752.83516213861	0.0	203.09335175383845	741.6574073930245	0.0	221.67635236425815	714.6777536362479	0.0	272.6492415978292	450.2231020275205	0.0	273.2135088713513	586.8724826958845	0.0	273.42569440395243	707.5357859101258	0.0	268.24955209356307	745.1789706738845	0.0	284.35781065718936	740.7858712362622	0.0	268.54138359995545	711.5902429856611	0.0	239.7512268091541	281.3801769868132	0.0	232.13938300808292	191.09954754172583	0.0	228.05776901330736	247.072089601253	0.0	189.03049188650647	292.819485202213	0.0	122.80241181187397	242.13559243465357	0.0	151.4283081526616	149.87555336889258	0.0	293.9229563991768	288.7192590047641	0.0	365.55280502722553	254.76787748251365	0.0	351.6638440804123	164.19927217568733	0.0
202	3.3666666666666667	243.02818694538468	461.1112551385554	0.0	213.7028462145778	455.0368141130002	0.0	215.08715734446918	594.2989615768245	0.0	214.80425709182646	712.9354524927924	0.0	217.29234920505382	754.8547399057851	0.0	203.13241176664894	743.914141532515	0.0	221.31696143703743	717.9004640180523	0.0	272.4465805153594	454.35864718277844	0.0	272.8513671576731	590.8847285526481	0.0	273.3533022893576	710.6837672711555	0.0	268.2111547356018	747.7428509216378	0.0	284.39812092556497	743.3782250036077	0.0	268.5569829146181	714.6498122446776	0.0	239.67901983150063	286.2021396128679	0.0	232.07010252887844	196.02956810353152	0.0	228.05347960904209	252.35175167461267	0.0	189.0367826752734	297.47266669999226	0.0	121.89020099648586	249.56558009353344	0.0	151.36411532231457	158.29002903935793	0.0	293.73137726630006	293.49120196761305	0.0	365.9849816898671	263.27693643621126	0.0	350.9896979348592	174.03080219253536	0.0
203	3.3833333333333333	242.78121096173558	466.4694942824252	0.0	213.47405613660604	460.1982231620531	0.0	214.75067510501162	598.6813855431595	0.0	214.7517320352046	716.5907860282368	0.0	217.57863775135885	757.1414378848688	0.0	203.2756204763232	746.5320710681558	0.0	221.0291845910793	721.6243895166195	0.0	272.1970441612185	459.6497722273191	0.0	272.4184163707884	595.7138307275309	0.0	273.2069265987132	714.4025529963602	0.0	268.0304597477475	750.7396878791901	0.0	284.2958959820038	746.4163388804612	0.0	268.4940126057875	718.2716343383381	0.0	239.58854149433483	292.2807290641207	0.0	231.9757824312885	202.24704532500024	0.0	227.9999261875408	258.91133055988195	0.0	189.01153629773574	303.32505655749975	0.0	120.91251953291578	258.8655650506333	0.0	150.9444169600356	168.71531384755008	0.0	293.5564728365513	299.52930550523854	0.0	366.33450434463356	273.6318516509042	0.0	350.35939345705043	185.9546581776154	0.0
204	3.4	242.50351712924808	472.77840043939443	0.0	213.21984626845983	466.3686994328266	0.0	214.3697087365966	603.6235920363567	0.0	214.8006730280392	720.433096980491	0.0	217.94520296249456	759.4813793744133	0.0	203.52554189492975	749.2889062246127	0.0	220.85625065073302	725.5504705347194	0.0	271.8971201341435	465.9445216298454	0.0	271.91962370345107	601.1375494056991	0.0	272.97869602873976	718.426756708071	0.0	267.7349359726022	753.9337802619378	0.0	284.0667701085068	749.6503714866865	0.0	268.3324822453326	722.208270293165	0.0	239.4778670331671	299.40819806232787	0.0	231.8780307155546	209.54075499248168	0.0	227.8898286045231	266.53304093801063	0.0	188.94520849070204	310.2063790080971	0.0	119.9250509985803	269.90016166940165	0.0	150.18331606373113	181.08156053968375	0.0	293.4050683387794	306.6535119320088	0.0	366.5379059169432	285.69384302165025	0.0	349.7656167878597	199.88025482333433	0.0
205	3.4166666666666665	242.19940405203118	479.8219584369178	0.0	212.9565670579945	473.35746767642866	0.0	213.9666097435141	608.8867768740764	0.0	214.9642096344703	724.1655449487225	0.0	218.3781861073069	761.684916738518	0.0	203.88035143109877	751.9764480548234	0.0	220.8291770265556	729.3685430560979	0.0	271.54213785160925	473.0422114651497	0.0	271.3642487228421	606.915219798477	0.0	272.67001479587844	722.4774828939393	0.0	267.358377890431	757.0888196648717	0.0	283.7331741641502	752.8293845969781	0.0	268.06915465820214	726.1870753214098	0.0	239.34691559608817	307.3167690853276	0.0	231.79700865537632	217.64002901768126	0.0	227.71596825010724	274.93924294057416	0.0	188.83495586072263	317.89640740433174	0.0	118.98995800399983	282.49522917477503	0.0	149.10845876690567	195.30498428653055	0.0	293.27764837792853	314.62931276775487	0.0	366.52480955482565	299.27524512994444	0.0	349.19827351193504	215.69688705912623	0.0
206	3.433333333333333	241.87680473836903	487.3438122608566	0.0	212.69768021215222	480.9299295752154	0.0	213.5733491094323	614.2360037824973	0.0	215.24283499938483	727.5407234493343	0.0	218.85341514203589	763.6140736517531	0.0	204.3291383781666	754.4304101271605	0.0	220.9614996204943	732.8101767543546	0.0	271.13171862386633	480.6988808223869	0.0	270.7694234720025	612.8030805186191	0.0	272.2927415329125	726.2965158656016	0.0	266.9396200282669	760.0044483442393	0.0	283.3204457101844	755.7465316398958	0.0	267.7157399102283	729.943118261327	0.0	239.19964694862853	315.68869409284616	0.0	231.74156138035877	226.2175147358795	0.0	227.47242875235628	283.80045437089836	0.0	188.6913274419795	326.12435459873103	0.0	118.18234189798257	296.433725979946	0.0	147.7574687155244	211.28578379142726	0.0	293.16994991946603	323.1733374310578	0.0	366.21759562499346	314.12817322703637	0.0	348.6448124873388	233.2732838822825	0.0
207	3.4499999999999997	241.54718976586486	495.0575688595736	0.0	212.45409499646124	488.81759737842776	0.0	213.22714122229127	619.4568618990565	0.0	215.62264778839187	730.3859001938	0.0	219.3406326862852	765.1950750378211	0.0	204.85120062763363	756.5455134998225	0.0	221.2481746111161	735.6835274768189	0.0	270.67117235795627	488.63921618776436	0.0	270.15972456674757	618.5693394056118	0.0	271.8665345786693	729.6763971518869	0.0	266.51471893775283	762.5450386415597	0.0	282.85221103106073	758.2699690961123	0.0	267.29501939647315	733.2552737910033	0.0	239.04329421947693	324.17987988017643	0.0	231.71336664758815	234.91529129322777	0.0	227.1558071650039	292.75971563389976	0.0	188.53501239735047	334.5866907747959	0.0	117.59479592624217	311.4617825833977	0.0	146.17345639523356	228.920488767224	0.0	293.07300734857995	331.9746934837551	0.0	365.5362816074146	329.9478834591841	0.0	348.08714126510876	252.46396141246785	0.0
